<?xml version="1.0" encoding="UTF-8" standalone="no"?>
<svg
   xmlns:dc="http://purl.org/dc/elements/1.1/"
   xmlns:cc="http://creativecommons.org/ns#"
   xmlns:rdf="http://www.w3.org/1999/02/22-rdf-syntax-ns#"
   xmlns:svg="http://www.w3.org/2000/svg"
   xmlns="http://www.w3.org/2000/svg"
   xmlns:sodipodi="http://sodipodi.sourceforge.net/DTD/sodipodi-0.dtd"
   xmlns:inkscape="http://www.inkscape.org/namespaces/inkscape"
   viewBox="0 0 512 512"
   style="height: 512px; width: 512px;"
   version="1.1"
   id="svg8"
   sodipodi:docname="icon.svg"
   inkscape:export-filename="C:\Users\Desenvolv3\Desktop\icon-512.png"
   inkscape:export-xdpi="96"
   inkscape:export-ydpi="96"
   inkscape:version="0.92.4 (5da689c313, 2019-01-14)">
  <metadata
     id="metadata14">
    <rdf:RDF>
      <cc:Work
         rdf:about="">
        <dc:format>image/svg+xml</dc:format>
        <dc:type
           rdf:resource="http://purl.org/dc/dcmitype/StillImage" />
        <dc:title></dc:title>
      </cc:Work>
    </rdf:RDF>
  </metadata>
  <defs
     id="defs12" />
  <sodipodi:namedview
     pagecolor="#ffffff"
     bordercolor="#666666"
     borderopacity="1"
     objecttolerance="10"
     gridtolerance="10"
     guidetolerance="10"
     inkscape:pageopacity="0"
     inkscape:pageshadow="2"
     inkscape:window-width="1366"
     inkscape:window-height="715"
     id="namedview10"
     showgrid="false"
     inkscape:snap-global="false"
     showguides="false"
     inkscape:guide-bbox="true"
     inkscape:zoom="0.92187499"
     inkscape:cx="198.85162"
     inkscape:cy="258.5867"
     inkscape:window-x="1912"
     inkscape:window-y="296"
     inkscape:window-maximized="1"
     inkscape:current-layer="svg8">
    <sodipodi:guide
       position="27.118644,49.898305"
       orientation="0,1"
       id="guide991"
       inkscape:locked="false" />
    <sodipodi:guide
       position="-0.76703109,598.28425"
       orientation="1,0"
       id="guide817"
       inkscape:locked="false" />
  </sodipodi:namedview>
  <rect
     style="fill:#e40712;fill-opacity:1;stroke-width:10;stroke-miterlimit:4;stroke-dasharray:none"
     id="rect980"
     width="512"
     height="512"
     x="8.4258517e-08"
     y="2.1708374e-08"
     rx="0"
     ry="0"
     inkscape:export-xdpi="95.643051"
     inkscape:export-ydpi="95.643051" />
  <g
     id="g985"
     transform="matrix(0.81012991,0,0,0.7668161,43.546055,60.655431)"
     style="stroke-width:1.26875281"
     inkscape:export-xdpi="95"
     inkscape:export-ydpi="95">
    <g
       style="fill:#ffffff;stroke-width:2.07044864"
       transform="matrix(0.61279133,0,0,0.61279133,103.91778,-8.0596505)"
       id="g882"
       class="">
      <path
         id="path880"
         d="M 248,20.27 72.33,132.598 248,128.775 Z m 16,0 v 108.505 l 175.67,3.823 z m 37.844,55.066 c 4.647,-0.112 9.772,1.762 13.576,3.824 6.082,3.54 8.205,7.248 15.074,4.22 10.698,0.844 22.297,5.794 27.568,15.68 4.715,4.574 1.555,12.61 -5.167,12.65 -9.72,0.06 -19.74,-6.075 -14.563,-8.314 4.65,-2.01 14.634,0.886 10.014,-5.56 -3.632,-4.435 -11.085,-7.78 -16.352,-5.897 -1.59,6.81 -9.382,3.996 -11.955,-0.643 -2.357,-5.815 -9.154,-8.18 -15.085,-7.916 -6.06,2.703 1.67,8.784 5.344,9.936 7.904,2.124 0.217,7.454 -4.062,5.07 -4.28,-2.386 -14.993,-9.645 -13.523,-18.34 2.188,-3.336 5.514,-4.623 9.13,-4.71 z m -94.987,0.293 c 5.534,0.522 12.383,3.06 10.202,9.975 -4.282,6.93 -9.778,13.057 -18.062,14.782 -6.514,3.368 -14.885,4.397 -21.646,1.883 -3.604,-2.246 -13.427,-9.325 -14.81,-3.354 -0.666,6.2 3.028,15.352 -6.106,15.816 l -5.02,2.006 v -24.46 c 9.842,-3.876 21.037,-4.516 30.266,1.335 7.973,4.16 19.38,1.503 24.252,-5.783 1.33,-6.494 -8.162,-4.57 -12.24,-3.336 -2.687,-8.26 7.87,-7.47 13.163,-8.865 z m 35.012,69.282 -186.48,4.06 71.23,192.93 z m 28.26,0 115.25,196.99 71.23,-192.93 z m -14.13,7.53 -117.076,200.11 h 234.152 z m 122.4,18.132 c 3.895,0.046 7.914,1.155 10.942,2.96 13.828,8.237 21.455,26.145 22.056,42.956 0.084,5.698 -1.618,13.246 -5.966,17.016 -2.85,1.984 -6.025,3.198 -9.244,4.432 -16.824,-1.18 -23.932,-19.237 -29.727,-32.625 -3.405,-9.887 -5.777,-24.05 1.74,-31.32 2.533,-2.45 6.305,-3.465 10.2,-3.42 z m -227.627,7.707 c 6.525,0.26 12.91,4.953 14.844,11.32 2.083,3.974 -0.562,11.445 -4.857,12.09 -4.9,0.734 -3.757,-9.317 -9.344,-11.565 -5.88,-3.69 -11.495,4.34 -14.166,8.707 -0.33,0.96 -0.695,1.918 -0.896,2.914 10.397,-4.057 20.312,7.093 20.304,16.953 -0.312,11.67 -7.843,24.777 -19.705,28.134 h -5.564 c -12.7,-0.706 -18.296,-15.853 -14.163,-26.63 4.42,-15.785 10.772,-33.904 27.134,-40.6 2.048,-1.002 4.24,-1.41 6.413,-1.323 z m 228.725,2.95 c -7.066,-0.148 -4.38,9.958 -3.338,14.456 1.55,10.1 6.458,19.766 13.15,27.293 1.7,1.414 3.663,2.13 5.764,2.727 6.865,-1.254 4.47,-12.833 3.72,-16.535 -4.707,-10.907 -7.057,-23.284 -19.296,-27.942 z M 52,185.98 v 173.266 l 61.86,-5.703 z m 408,0 -61.86,167.563 61.86,5.703 z m -117.88,0.698 28.478,63.492 -10.014,4.447 -20.027,-43.365 c -6.02,3.062 -12.98,8.95 -14.56,-1.303 -1.344,-3.955 8.546,-5.1 8.15,-11.993 -0.393,-6.892 2.154,-12.126 7.972,-11.28 z m -205.847,24.3 c -2.302,0.156 -4.453,1.392 -6.148,3.133 -2.417,5.077 -4.1,10.268 -2.695,15.913 1.668,8.807 13.515,6.41 15.576,-0.85 2.663,-4.976 3.863,-11.65 -0.49,-15.696 -1.722,-1.623 -3.514,-2.38 -5.248,-2.5 -0.335,-0.024 -0.666,-0.023 -0.995,0 z m 317.48,33.65 c 3.69,0.262 5.783,6.924 4.74,11.038 -0.137,18.62 1.144,39.21 -9.677,55.322 -0.96,1.253 -2.258,1.946 -3.675,2.56 -5.81,-4.17 -3.01,-11.36 1.114,-15.566 1.01,7.297 5.573,-2.882 6.676,-5.56 1.31,-3.18 3.52,-17.75 -0.983,-10.27 0.69,4.05 -6.805,13.154 -9.38,8.118 -4.937,-14.41 -0.017,-30.488 7.025,-43.436 1.526,-1.667 2.933,-2.292 4.162,-2.205 z M 59.93,245.473 c 0.588,0.086 1.344,1.032 2.478,3.584 v 61.156 c -7.297,-7.04 -3.567,-17.42 -4.45,-26.402 -0.814,-7.606 1.655,-16.264 -1.274,-23.193 -4.622,-1.674 -5.797,-17.045 -3.176,-12.672 4.407,4.768 4.657,-2.73 6.422,-2.472 z m 166.013,4.34 c 4.463,0.077 8.93,1.227 12.8,3.32 8.1,4.427 13.744,14.375 10.792,23.568 -2.265,9.636 -10.61,16.243 -19.195,20.208 -4.058,2.644 -9.45,4.618 -11.283,9.46 -1.196,2.994 25.396,1.62 30.267,1.62 0.47,4.003 1.52,10.68 -3.814,11.725 -14.52,-1.25 -29.88,-0.606 -45.14,-0.606 0.437,-11.176 7.425,-21.35 17.023,-26.808 6.9,-4.875 15.435,-9.283 18.1,-17.927 1.763,-4.44 -0.56,-9.28 -4.632,-11.47 -4.154,-2.874 -10.947,-2.34 -13.178,2.7 -1.992,3.82 -4.38,9.075 -8.657,9.604 -2.893,0.358 -8.99,0.475 -7.263,-4.873 1.46,-5.63 3.413,-11.567 8.263,-15.213 4.45,-3.726 10.18,-5.403 15.918,-5.306 z m 58.565,0.517 c 2.548,0.043 5.088,0.494 7.46,1.352 6.835,2.2 12.034,7.93 14.296,14.656 6.14,14.67 5.577,33.025 -4.407,45.89 -4.434,4.726 -10.147,9.084 -16.93,9.104 -12.504,-0.152 -22.452,-11.172 -24.83,-22.865 -3.145,-13.39 -1.786,-28.618 6.913,-39.733 3.686,-5.435 10,-8.212 16.406,-8.398 0.364,-0.01 0.728,-0.012 1.092,-0.006 z m 166.388,5.768 c -0.997,-0.037 -2.02,0.973 -2.777,3.683 -1.645,5.895 -3.323,13.392 -0.755,19.298 5.1,-1.992 5.47,-9.617 6.676,-14.437 1.127,-3.304 -0.95,-8.46 -3.144,-8.542 z m -165.834,5.593 c -3.386,-0.167 -6.824,2.62 -8.324,5.64 -2.258,4.143 -2.065,9.04 -2.812,13.594 -0.813,9.084 -0.33,19.23 5.457,26.707 l 2.207,1.472 c 4.928,1.78 9.694,-2.16 11.07,-6.74 1.962,-6.234 2.34,-12.9 2.43,-19.407 -0.235,-7.035 -1.47,-14.922 -6.73,-20.012 -1.044,-0.813 -2.17,-1.196 -3.298,-1.252 z m 148.954,5.158 v 61.156 l -4.452,6.672 v -42.254 c -4.61,7.453 -9.028,9.044 -6.066,-0.912 6.054,-7.15 4.81,-17.41 10.518,-24.662 z m -359.37,1.11 c 0.02,0.07 0.043,0.14 0.063,0.208 4.513,-0.497 7.276,7.277 9.104,10.865 0.8,3.573 5.12,17.77 2.032,14.798 -0.273,-0.453 -0.53,-0.914 -0.795,-1.37 l 1.837,3.3 c -4.598,-3.657 -6.375,-10.487 -4.444,-8.024 -1.558,-3.014 -2.96,-6.095 -4.218,-9.24 -0.06,1.18 -0.727,2.115 -2.465,2.793 -1.287,3.49 -1.265,7.08 -0.67,10.645 0.2,-1.67 1.175,-2.384 3.385,-0.754 7.842,12.624 12.176,29.107 7.298,43.498 l -2.224,1.11 c -10.357,-5.83 -11.404,-19.436 -13.427,-30.003 -1.555,-12.29 -0.788,-24.71 2.3,-36.71 0.807,-0.547 1.567,-0.828 2.284,-0.907 -0.02,-0.07 -0.042,-0.137 -0.06,-0.207 z m 0.06,0.208 c 0.114,0.417 0.237,0.826 0.368,1.225 -0.12,-0.408 -0.25,-0.813 -0.365,-1.224 z m 2.052,31.07 c -4.06,4.626 -2.26,12.79 -0.377,18.4 1.108,5.507 6.916,10.14 6.056,1.52 -0.05,-5.63 0.17,-11.725 -3,-16.39 -0.96,-0.537 -1.907,-1.898 -2.678,-3.53 z M 143.154,368.554 256,491.73 368.846,368.553 Z m -21.394,0.33 -53.797,4.96 64.223,41.065 c -2.556,-2.703 -4.856,-5.71 -7.118,-8.763 -5.132,-6.95 -10.468,-13.657 -18.88,-16.672 -8.736,-6.442 -4.18,-5.276 2.9,-2.537 -0.948,-1.854 -0.725,-2.61 0.123,-2.668 2.17,-0.153 8.43,4.226 9.74,6.37 l 24.706,31.606 65.15,41.656 z m 268.48,0 -42.472,46.36 c 6.404,-3.148 11.38,-8.538 17.056,-12.493 2.396,-1.346 3.72,-1.896 4.295,-1.89 2.055,0.017 -5.43,7.116 -7.682,10.333 -9.42,9.813 -16.066,23.033 -28.668,29.114 l 18.914,-24.46 c -2.32,1.26 -5.94,3.19 -8.21,4.085 l -40.28,43.968 74.468,-47.615 c 5.48,-6.718 1.903,-5.537 -5.64,-0.896 l -11.438,6.014 c 11.46,-13.746 26.855,-23.568 40.053,-35.582 3.162,-1.492 9.503,-5.663 10.986,-5.738 0.777,-0.04 0.22,1.045 -2.824,4.228 l -12.613,15.965 c 10.01,-7.533 0.884,3.926 -4.45,5.56 -0.695,1.01 -1.44,1.95 -2.212,2.862 l 54.512,-34.856 z m -158.265,16.644 c 1.358,0.01 2.71,0.125 3.998,0.295 v 43.365 h -13.35 v -30.02 c -5.04,-1.378 -10.417,1.722 -15.34,-0.27 -3.758,-2.94 1.01,-6.846 4.524,-5.89 3.278,-0.126 7.556,0.197 9.324,-3.234 2.635,-3.34 6.77,-4.274 10.845,-4.246 z m 33.048,0.81 c 0.464,-0.02 0.963,0.037 1.497,0.186 3.147,0.81 6.466,0.245 9.695,0.413 h 25.402 c 1.503,2.992 0.752,7.75 -3.305,7.855 -3.893,0.51 -7.81,-0.382 -11.69,0.212 -4.698,0.146 -9.753,-1.773 -14.198,0.404 -3.122,1.66 -4.165,8.505 0.988,6.076 3.366,-1.11 6.912,-1.807 10.408,-0.89 6.984,1.103 14.966,2.89 19.125,9.19 2.076,3.156 2.672,7.337 0.633,10.67 -3.602,6.528 -11.534,8.407 -18.295,9.75 -2.337,0.443 -4.66,1.404 -7.03,1.21 -7.245,-0.593 -15.603,-1.083 -20.603,-7.144 -2.662,-2.494 -2.703,-7.097 1.903,-6.66 3.57,-0.142 8.657,-0.4 10.322,3.505 3.247,3.66 8.837,2.94 13.127,1.98 3.588,-0.483 7.53,-2.548 7.584,-6.673 0.59,-4.21 -3.078,-7.18 -6.844,-7.8 -5.818,-2.365 -11.57,1.405 -17.37,1.827 -3.463,1.046 -9.578,0.48 -8.936,-4.465 0.76,-4.188 2.663,-8.108 2.71,-12.46 0.09,-3.005 1.634,-7.03 4.877,-7.184 z m 133.47,4.975 c -0.21,-0.248 -6.99,5.744 -9.92,8.08 l -15.75,13.118 c 8.59,-4.363 16.472,-9.61 22.275,-17.448 2.553,-2.6 3.476,-3.652 3.394,-3.75 z m -247.032,14.16 c 2.39,-0.02 7.543,4.65 9.45,7.06 l 26.11,31.11 c -7.722,-2.182 -13.29,-7.19 -17.653,-13.777 -6.43,-7.316 -11.282,-16.606 -21.213,-19.54 -8.943,-5.002 -5.18,-6.42 2.133,-2.264 -0.273,-1.858 0.24,-2.582 1.174,-2.59 z"
         inkscape:connector-curvature="0"
         style="fill:#ffffff;fill-opacity:1;stroke-width:2.07044864" />
    </g>
    <path
       inkscape:connector-curvature="0"
       d="m 312.31024,271.84843 0.002,0.004 c -11.41,0 -24.2727,4.91075 -40.2207,22.71875 v 130.8125 c 19.24,-13.898 38.4845,-19.62775 56.5625,-19.84375 22.987,-0.275 43.6435,7.6315 61.5625,15.4375 17.92,7.805 33.54225,15.33075 44.15625,16.46875 5.308,0.57 9.00245,-0.0885 12.56445,-2.3125 3.187,-1.99 6.62,-5.8153 10,-12.5293 l -20.6582,-129.75586 c -10.648,7.425 -20.87875,11.5525 -30.71875,12.6875 -13.806,1.592 -26.063,-2.5307 -36.75,-7.9707 -21.37,-10.875 -38.164,-25.7618 -56.5,-25.7168 z m -99.375,5.00196 v 0.002 c -18.118,-0.082 -35.58325,15.45075 -57.40625,27.09375 -10.912,5.822 -23.34725,10.3923 -37.40625,9.1543 -10.01801,-0.88 -20.422553,-4.7803 -31.185552,-12.1543 l -19.439453,128.5625 c 13.616,13.096 25.343736,15.5658 38.593755,13.8418 14.26701,-1.855 30.33225,-9.85475 47.40625,-18.09375 17.074,-8.24 35.3095,-16.77475 55.4375,-17.21875 14.575,-0.32 29.7307,4.20975 44.4707,15.34375 v -127.8731 c -16.255,-18.45 -24.7747,-18.6202 -40.4707,-18.6582 z m -162.906255,38.0625 -24.78125,158.2207 194.906255,13 v 19 h 83.5625 v -18.9707 l 195.5293,-13.0293 -24.7793,-158.2207 -15.5293,1.2207 16.93555,106.5 0.43945,2.7793 -1.1582,2.52929 c -4.76,10.555 -10.74355,18.30621 -18.31055,23.03321 -3.66,2.285 -7.5917,3.72825 -11.5957,4.53125 l 0.0312,0.1875 -1.99805,0.1875 c -0.084,0.012 -0.167,0.0217 -0.25,0.0312 -0.958,0.136 -1.915,0.21625 -2.875,0.28125 h -0.125 l -176.87695,17.12304 -0.78125,0.0645 -0.75,-0.0625 -158.4668,-10.9668 h -0.0937 c -4.606003,0.203 -9.278705,-0.1007 -13.970705,-0.9707 -0.03,-0.005 -0.06275,0.006 -0.09375,0 -13.02,-2.434 -26.164,-9.28905 -38.25,-22.12305 l -3.125,-3.31445 0.689453,-4.5 17.40625,-115.3125 z m 278.841805,109.3125 c -18.50201,0.22 -37.82655,6.678 -59.43555,27.625 l -2.34375,2.28125 124.5625,-12.03125 c -2.944,-1.34 -5.89225,-2.688 -8.90625,-4 -17.257,-7.518 -35.372,-14.096 -53.875,-13.875 z m -119.5293,2.49804 v 0.002 c -14.906,0.328 -30.9407,7.28 -47.7207,15.375 -3.31801,1.6 -6.6886,3.246 -10.0586,4.875 l 107.0293,7.40625 -2.7207,-3.125 c -17.09004,-19.683 -31.6233,-24.86021 -46.5293,-24.53321 z"
       style="fill:#ffffff;fill-opacity:1;stroke-width:1.26875281"
       id="path902" />
  </g>
</svg>
